<svg xmlns="http://www.w3.org/2000/svg" viewBox="0 0 256 256" role="img" aria-label="Depth chart rotation icon">
  <defs><linearGradient id="bg" x1="0" y1="0" x2="0" y2="1"><stop offset="0" stop-color="#061b2f"/><stop offset="1" stop-color="#082f4e"/></linearGradient></defs>
  <circle cx="128" cy="128" r="96" fill="url(#bg)" stroke="#60d2ff" stroke-width="9"/>
  <path d="M76 116c-20 27-17 62 8 84m96-84c20 27 17 62-8 84" fill="none" stroke="#f8fdff" stroke-width="11" stroke-linecap="round"/>
  <path d="M74 112l-29 11 12-29m125 111l29-11-12 29" fill="none" stroke="#60d2ff" stroke-width="9" stroke-linejoin="round"/>
  <circle cx="128" cy="65" r="18" fill="#f8fdff"/><path d="M102 111c6-21 46-21 52 0v18h-52z" fill="#f8fdff"/>
  <circle cx="128" cy="128" r="20" fill="#ddecff"/><path d="M96 181c8-27 56-27 64 0v18H96z" fill="#ddecff"/>
</svg>
